<!-- <svg xmlns="http://www.w3.org/2000/svg" width="24" height="24" viewBox="0 0 28 28" fill="black" stroke="white" strokeWidth="4" strokeLinecap="round" strokeLinejoin="round"><path d="M20 9v11a2 2 0 0 1-2 2H6a2 2 0 0 1-2-2V9"/><path d="M9 22V12h6v10M2 10.6L12 2l10 8.6"/></svg> -->
<svg xmlns="http://www.w3.org/2000/svg" width="14" height="21" viewBox="0 0 24 24" fill="black" stroke="white" strokeWidth="4" strokeLinecap="round" strokeLinejoin="round"><path d="M20 9v11a2 2 0 0 1-2 2H6a2 2 0 0 1-2-2V9"/><path d="M9 22V12h6v10M2 10.6L12 2l10 8.6"/></svg>